<?xml version="1.0" encoding="UTF-8"?>
<svg id="Camada_2" data-name="Camada 2" xmlns="http://www.w3.org/2000/svg" viewBox="0 0 4900 700">
  <defs>
    <style>
      .cls-1 {
        fill: #2a63c9;
      }

      .cls-2 {
        fill: #fff;
      }

      .cls-3 {
        fill: #e9fc89;
      }

      .cls-4 {
        fill: #f9e5d8;
      }

      .cls-5 {
        fill: #f2a4ad;
      }
    </style>
  </defs>
  <g id="Camada_2-2" data-name="Camada 2">
    <g>
      <g>
        <rect class="cls-1" x="700" width="700" height="700"/>
        <g>
          <path class="cls-3" d="M1050.13,526.67c-21.68,0-43.36-8.25-59.86-24.76l-96.6-96.6,94.02-94.02,156.46,156.46-34.16,34.16c-16.5,16.5-38.18,24.76-59.86,24.76M962.76,405.32l62.05,62.05c13.84,13.84,36.26,13.96,50.25.38l-87.37-87.37-24.93,24.93Z"/>
          <path class="cls-3" d="M1168.28,443.64l-156.45-156.45,25.62-25.62c4.93-4.93,12.92-4.93,17.85,0l147.53,147.53-34.54,34.54Z"/>
          <path class="cls-3" d="M1227.22,384.69l-151.46-151.46c-6.35-6.35-14.73-10.46-23.69-11-10.38-.62-20.24,3.14-27.52,10.42l-151.77,151.77-34.54-34.54,150.79-150.8c16.36-16.36,38.52-25.98,61.66-25.76,22.3.21,43.24,9,59.03,24.79l152.03,152.03-34.54,34.54Z"/>
        </g>
      </g>
      <g>
        <rect class="cls-1" x="2800" width="700" height="700"/>
        <g>
          <path class="cls-4" d="M3150.13,526.67c-21.68,0-43.36-8.25-59.86-24.76l-96.6-96.6,94.02-94.02,156.46,156.46-34.16,34.16c-16.5,16.5-38.18,24.76-59.86,24.76M3062.76,405.32l62.05,62.05c13.84,13.84,36.26,13.96,50.25.38l-87.37-87.37-24.93,24.93Z"/>
          <path class="cls-4" d="M3268.28,443.64l-156.45-156.45,25.62-25.62c4.93-4.93,12.92-4.93,17.85,0l147.53,147.53-34.54,34.54Z"/>
          <path class="cls-4" d="M3327.22,384.69l-151.46-151.46c-6.35-6.35-14.73-10.46-23.69-11-10.38-.62-20.24,3.14-27.52,10.42l-151.77,151.77-34.54-34.54,150.79-150.8c16.36-16.36,38.52-25.98,61.66-25.76,22.3.21,43.24,9,59.03,24.79l152.03,152.03-34.54,34.54Z"/>
        </g>
      </g>
      <g>
        <rect class="cls-4" x="1400" width="700" height="700"/>
        <g>
          <path class="cls-5" d="M1750.13,526.67c-21.68,0-43.36-8.25-59.86-24.76l-96.6-96.6,94.02-94.02,156.46,156.46-34.16,34.16c-16.5,16.5-38.18,24.76-59.86,24.76M1662.76,405.32l62.05,62.05c13.84,13.84,36.26,13.96,50.25.38l-87.37-87.37-24.93,24.93Z"/>
          <path class="cls-5" d="M1868.28,443.64l-156.45-156.45,25.62-25.62c4.93-4.93,12.92-4.93,17.85,0l147.53,147.53-34.54,34.54Z"/>
          <path class="cls-5" d="M1927.22,384.69l-151.46-151.46c-6.35-6.35-14.73-10.46-23.69-11-10.38-.62-20.24,3.14-27.52,10.42l-151.77,151.77-34.54-34.54,150.79-150.8c16.36-16.36,38.52-25.98,61.66-25.76,22.3.21,43.24,9,59.03,24.79l152.03,152.03-34.54,34.54Z"/>
        </g>
      </g>
      <g>
        <rect class="cls-5" x="2100" width="700" height="700"/>
        <g>
          <path class="cls-4" d="M2450.13,526.67c-21.68,0-43.36-8.25-59.86-24.76l-96.6-96.6,94.02-94.02,156.46,156.46-34.16,34.16c-16.5,16.5-38.18,24.76-59.86,24.76M2362.76,405.32l62.05,62.05c13.84,13.84,36.26,13.96,50.25.38l-87.37-87.37-24.93,24.93Z"/>
          <path class="cls-4" d="M2568.28,443.64l-156.45-156.45,25.62-25.62c4.93-4.93,12.92-4.93,17.85,0l147.53,147.53-34.54,34.54Z"/>
          <path class="cls-4" d="M2627.22,384.69l-151.46-151.46c-6.35-6.35-14.73-10.46-23.69-11-10.38-.62-20.24,3.14-27.52,10.42l-151.77,151.77-34.54-34.54,150.79-150.8c16.36-16.36,38.52-25.98,61.66-25.76,22.3.21,43.24,9,59.03,24.79l152.03,152.03-34.54,34.54Z"/>
        </g>
      </g>
      <g>
        <rect class="cls-4" x="3500" width="700" height="700"/>
        <g>
          <path class="cls-1" d="M3850.13,526.67c-21.68,0-43.36-8.25-59.86-24.76l-96.6-96.6,94.02-94.02,156.46,156.46-34.16,34.16c-16.5,16.5-38.18,24.76-59.86,24.76M3762.76,405.32l62.05,62.05c13.84,13.84,36.26,13.96,50.25.38l-87.37-87.37-24.93,24.93Z"/>
          <path class="cls-1" d="M3968.28,443.64l-156.45-156.45,25.62-25.62c4.93-4.93,12.92-4.93,17.85,0l147.53,147.53-34.54,34.54Z"/>
          <path class="cls-1" d="M4027.22,384.69l-151.46-151.46c-6.35-6.35-14.73-10.46-23.69-11-10.38-.62-20.24,3.14-27.52,10.42l-151.77,151.77-34.54-34.54,150.79-150.8c16.36-16.36,38.52-25.98,61.66-25.76,22.3.21,43.24,9,59.03,24.79l152.03,152.03-34.54,34.54Z"/>
        </g>
      </g>
      <g>
        <rect class="cls-2" x="4200" width="700" height="700"/>
        <g>
          <path class="cls-1" d="M4550.13,526.67c-21.68,0-43.36-8.25-59.86-24.76l-96.6-96.6,94.02-94.02,156.46,156.46-34.16,34.16c-16.5,16.5-38.18,24.76-59.86,24.76M4462.76,405.32l62.05,62.05c13.84,13.84,36.26,13.96,50.25.38l-87.37-87.37-24.93,24.93Z"/>
          <path class="cls-1" d="M4668.28,443.64l-156.45-156.45,25.62-25.62c4.93-4.93,12.92-4.93,17.85,0l147.53,147.53-34.54,34.54Z"/>
          <path class="cls-1" d="M4727.22,384.69l-151.46-151.46c-6.35-6.35-14.73-10.46-23.69-11-10.38-.62-20.24,3.14-27.52,10.42l-151.77,151.77-34.54-34.54,150.79-150.8c16.36-16.36,38.52-25.98,61.66-25.76,22.3.21,43.24,9,59.03,24.79l152.03,152.03-34.54,34.54Z"/>
        </g>
      </g>
      <g>
        <rect class="cls-3" width="700" height="700"/>
        <g>
          <path class="cls-1" d="M350.13,526.67c-21.68,0-43.36-8.25-59.86-24.76l-96.6-96.6,94.02-94.02,156.46,156.46-34.16,34.16c-16.5,16.5-38.18,24.76-59.86,24.76M262.76,405.32l62.05,62.05c13.84,13.84,36.26,13.96,50.25.38l-87.37-87.37-24.93,24.93Z"/>
          <path class="cls-1" d="M468.28,443.64l-156.45-156.45,25.62-25.62c4.93-4.93,12.92-4.93,17.85,0l147.53,147.53-34.54,34.54Z"/>
          <path class="cls-1" d="M527.22,384.69l-151.46-151.46c-6.35-6.35-14.73-10.46-23.69-11-10.38-.62-20.24,3.14-27.52,10.42l-151.77,151.77-34.54-34.54,150.79-150.8c16.36-16.36,38.52-25.98,61.66-25.76,22.3.21,43.24,9,59.03,24.79l152.03,152.03-34.54,34.54Z"/>
        </g>
      </g>
    </g>
  </g>
</svg>