<?xml version="1.0" encoding="UTF-8"?>
<svg id="Camada_2" data-name="Camada 2" xmlns="http://www.w3.org/2000/svg" viewBox="0 0 958.87 209.62">
  <defs>
    <style>
      .cls-1 {
        fill: #fff;
      }
    </style>
  </defs>
  <g id="Layer_1" data-name="Layer 1">
    <g>
      <g>
        <path class="cls-1" d="M125.7,209.62c-12.86,0-25.72-4.9-35.51-14.69l-57.3-57.3,55.78-55.78,92.82,92.82-20.26,20.26c-9.79,9.79-22.65,14.69-35.51,14.69ZM73.87,137.63l36.81,36.81c8.21,8.21,21.51,8.28,29.81.23l-51.83-51.83-14.79,14.79Z"/>
        <path class="cls-1" d="M195.79,160.36l-92.81-92.81,15.2-15.2c2.92-2.92,7.67-2.92,10.59,0l87.52,87.52-20.49,20.49Z"/>
        <path class="cls-1" d="M230.75,125.39l-89.85-89.85c-3.77-3.77-8.74-6.21-14.05-6.52-6.16-.37-12.01,1.86-16.33,6.18L20.49,125.23,0,104.74,89.46,15.29C99.16,5.58,112.31-.13,126.04,0c13.23.13,25.65,5.34,35.02,14.71l90.19,90.19-20.49,20.49Z"/>
      </g>
      <g>
        <path class="cls-1" d="M337.62,156.22c-.5-.35-.8-.82-.89-1.42l-29.4-99.99c-.1-.2-.15-.45-.15-.75,0-1.19.69-1.79,2.09-1.79h25.52c1.29,0,2.09.65,2.39,1.94l14.92,62.98c.1.4.25.6.45.6s.35-.2.45-.6l14.48-62.98c.3-1.29,1.09-1.94,2.39-1.94h24.92c.8,0,1.37.22,1.72.67.35.45.42,1.07.22,1.87l-29.7,99.99c-.1.6-.4,1.07-.9,1.42-.5.35-1.04.52-1.64.52h-25.22c-.6,0-1.14-.17-1.64-.52Z"/>
        <path class="cls-1" d="M406.57,156.15c-.4-.4-.6-.94-.6-1.64V54.52c0-.69.2-1.24.6-1.64.4-.4.94-.6,1.64-.6h23.58c.69,0,1.24.2,1.64.6.4.4.6.95.6,1.64v99.99c0,.7-.2,1.24-.6,1.64-.4.4-.95.6-1.64.6h-23.58c-.7,0-1.24-.2-1.64-.6Z"/>
        <path class="cls-1" d="M464.25,153.53c-6.32-3.33-11.22-8.01-14.7-14.03-3.48-6.02-5.22-13.01-5.22-20.97v-28.06c0-7.76,1.74-14.62,5.22-20.59,3.48-5.97,8.38-10.6,14.7-13.88,6.32-3.28,13.6-4.92,21.86-4.92s15.69,1.64,22.01,4.92c6.32,3.28,11.22,7.91,14.7,13.88,3.48,5.97,5.22,12.83,5.22,20.59v28.06c0,7.96-1.74,14.95-5.22,20.97-3.48,6.02-8.38,10.7-14.7,14.03-6.32,3.33-13.65,5-22.01,5s-15.55-1.67-21.86-5ZM496.18,130.4c2.54-2.74,3.81-6.39,3.81-10.97v-29.25c0-4.57-1.27-8.23-3.81-10.97-2.54-2.74-5.89-4.1-10.07-4.1s-7.39,1.37-9.92,4.1c-2.54,2.74-3.81,6.39-3.81,10.97v29.25c0,4.58,1.27,8.23,3.81,10.97,2.54,2.74,5.84,4.1,9.92,4.1s7.54-1.37,10.07-4.1Z"/>
        <path class="cls-1" d="M642.35,61.53h-54.77c-.4,0-.6.2-.6.6v36.86c0,.4.2.6.6.6h38.35c.99,0,1.49.5,1.49,1.49v6.27c0,1-.5,1.49-1.49,1.49h-38.35c-.4,0-.6.2-.6.6v45.81c0,1-.5,1.49-1.49,1.49h-7.61c-1,0-1.49-.5-1.49-1.49V53.77c0-.99.5-1.49,1.49-1.49h64.47c.99,0,1.49.5,1.49,1.49v6.27c0,1-.5,1.49-1.49,1.49Z"/>
        <path class="cls-1" d="M661.15,155.25V53.77c0-.99.5-1.49,1.49-1.49h7.61c.99,0,1.49.5,1.49,1.49v101.48c0,1-.5,1.49-1.49,1.49h-7.61c-1,0-1.49-.5-1.49-1.49Z"/>
        <path class="cls-1" d="M699.8,155.25V53.77c0-.99.5-1.49,1.49-1.49h7.61c.99,0,1.49.5,1.49,1.49v93.12c0,.4.2.6.6.6h52.68c.99,0,1.49.5,1.49,1.49v6.27c0,1-.5,1.49-1.49,1.49h-62.38c-1,0-1.49-.5-1.49-1.49Z"/>
        <path class="cls-1" d="M854.11,52.28h7.76c.99,0,1.49.5,1.49,1.49v101.48c0,1-.5,1.49-1.49,1.49h-7.61c-1,0-1.49-.5-1.49-1.49v-82.97c0-.3-.1-.5-.3-.6-.2-.1-.35,0-.45.3l-24.33,37.31c-.5.7-1.1,1.04-1.79,1.04h-3.88c-.7,0-1.29-.3-1.79-.89l-24.32-37.01c-.1-.3-.25-.4-.45-.3-.2.1-.3.3-.3.6v82.53c0,1-.5,1.49-1.49,1.49h-7.61c-1,0-1.49-.5-1.49-1.49V53.77c0-.99.5-1.49,1.49-1.49h7.76c.79,0,1.39.3,1.79.9l28.06,42.53c.1.1.25.15.45.15s.35-.05.45-.15l27.76-42.38c.5-.69,1.09-1.04,1.79-1.04Z"/>
        <path class="cls-1" d="M957.38,61.53h-54.92c-.4,0-.6.2-.6.6v36.86c0,.4.2.6.6.6h38.5c.99,0,1.49.5,1.49,1.49v6.27c0,1-.5,1.49-1.49,1.49h-38.5c-.4,0-.6.2-.6.6v37.46c0,.4.2.6.6.6h54.92c.99,0,1.49.5,1.49,1.49v6.27c0,1-.5,1.49-1.49,1.49h-64.62c-1,0-1.49-.5-1.49-1.49V53.77c0-.99.5-1.49,1.49-1.49h64.62c.99,0,1.49.5,1.49,1.49v6.27c0,1-.5,1.49-1.49,1.49Z"/>
      </g>
    </g>
  </g>
</svg>