<?xml version="1.0" encoding="UTF-8"?>
<svg id="Camada_2" data-name="Camada 2" xmlns="http://www.w3.org/2000/svg" viewBox="0 0 610.22 443.7">
  <defs>
    <style>
      .cls-1 {
        fill: #fff;
      }
    </style>
  </defs>
  <g id="Layer_1" data-name="Layer 1">
    <g>
      <g>
        <path class="cls-1" d="M305.22,288.46c-17.7,0-35.39-6.74-48.87-20.21l-78.86-78.86,76.75-76.75,127.72,127.72-27.89,27.89c-13.47,13.47-31.17,20.21-48.87,20.21ZM233.89,189.39l50.66,50.66c11.29,11.29,29.6,11.39,41.02.31l-71.32-71.32-20.35,20.36Z"/>
        <path class="cls-1" d="M401.66,220.67l-127.72-127.72,20.91-20.91c4.02-4.02,10.55-4.02,14.57,0l120.43,120.43-28.2,28.2Z"/>
        <path class="cls-1" d="M449.78,172.55l-123.64-123.64c-5.18-5.18-12.02-8.54-19.34-8.98-8.47-.5-16.52,2.56-22.47,8.51l-123.89,123.89-28.2-28.2L255.34,21.03C268.7,7.68,286.79-.18,305.68,0c18.21.17,35.3,7.34,48.19,20.24l124.11,124.11-28.2,28.2Z"/>
      </g>
      <g>
        <path class="cls-1" d="M28.51,441.53c-.47-.33-.75-.77-.84-1.33L.14,346.58c-.09-.19-.14-.42-.14-.7,0-1.12.65-1.68,1.96-1.68h23.89c1.21,0,1.96.61,2.24,1.82l13.97,58.97c.09.37.23.56.42.56s.33-.19.42-.56l13.55-58.97c.28-1.21,1.02-1.82,2.24-1.82h23.33c.74,0,1.28.21,1.61.63.33.42.39,1,.21,1.75l-27.81,93.62c-.09.56-.37,1-.84,1.33-.47.33-.98.49-1.54.49h-23.62c-.56,0-1.07-.16-1.54-.49Z"/>
        <path class="cls-1" d="M93.06,441.46c-.37-.37-.56-.88-.56-1.54v-93.62c0-.65.19-1.16.56-1.54.37-.37.88-.56,1.54-.56h22.08c.65,0,1.16.19,1.54.56.37.37.56.89.56,1.54v93.62c0,.65-.19,1.17-.56,1.54-.37.37-.89.56-1.54.56h-22.08c-.65,0-1.17-.19-1.54-.56Z"/>
        <path class="cls-1" d="M147.07,439.01c-5.92-3.12-10.5-7.5-13.76-13.14-3.26-5.63-4.89-12.18-4.89-19.63v-26.27c0-7.27,1.63-13.69,4.89-19.28,3.26-5.59,7.85-9.92,13.76-13,5.91-3.07,12.74-4.61,20.47-4.61s14.69,1.54,20.61,4.61c5.92,3.07,10.5,7.41,13.76,13,3.26,5.59,4.89,12.02,4.89,19.28v26.27c0,7.45-1.63,14-4.89,19.63-3.26,5.64-7.85,10.02-13.76,13.14-5.92,3.12-12.79,4.68-20.61,4.68s-14.56-1.56-20.47-4.68ZM176.97,417.36c2.38-2.56,3.56-5.98,3.56-10.27v-27.39c0-4.28-1.19-7.71-3.56-10.27-2.37-2.56-5.52-3.84-9.43-3.84s-6.92,1.28-9.29,3.84c-2.38,2.56-3.56,5.99-3.56,10.27v27.39c0,4.29,1.19,7.71,3.56,10.27,2.37,2.56,5.47,3.84,9.29,3.84s7.06-1.28,9.43-3.84Z"/>
        <path class="cls-1" d="M313.84,352.87h-51.28c-.37,0-.56.19-.56.56v34.51c0,.37.19.56.56.56h35.91c.93,0,1.4.47,1.4,1.4v5.87c0,.93-.47,1.4-1.4,1.4h-35.91c-.37,0-.56.19-.56.56v42.9c0,.93-.47,1.4-1.4,1.4h-7.13c-.93,0-1.4-.47-1.4-1.4v-95.02c0-.93.46-1.4,1.4-1.4h60.37c.93,0,1.4.47,1.4,1.4v5.87c0,.93-.47,1.4-1.4,1.4Z"/>
        <path class="cls-1" d="M331.45,440.62v-95.02c0-.93.46-1.4,1.4-1.4h7.13c.93,0,1.4.47,1.4,1.4v95.02c0,.93-.47,1.4-1.4,1.4h-7.13c-.93,0-1.4-.47-1.4-1.4Z"/>
        <path class="cls-1" d="M367.64,440.62v-95.02c0-.93.46-1.4,1.4-1.4h7.13c.93,0,1.4.47,1.4,1.4v87.2c0,.37.19.56.56.56h49.33c.93,0,1.4.47,1.4,1.4v5.87c0,.93-.47,1.4-1.4,1.4h-58.41c-.93,0-1.4-.47-1.4-1.4Z"/>
        <path class="cls-1" d="M512.12,344.2h7.27c.93,0,1.4.47,1.4,1.4v95.02c0,.93-.47,1.4-1.4,1.4h-7.13c-.93,0-1.4-.47-1.4-1.4v-77.69c0-.28-.09-.47-.28-.56-.19-.09-.33,0-.42.28l-22.78,34.93c-.47.65-1.03.98-1.68.98h-3.63c-.65,0-1.21-.28-1.68-.84l-22.78-34.66c-.09-.28-.23-.37-.42-.28-.19.09-.28.28-.28.56v77.27c0,.93-.47,1.4-1.4,1.4h-7.13c-.93,0-1.4-.47-1.4-1.4v-95.02c0-.93.46-1.4,1.4-1.4h7.27c.74,0,1.3.28,1.68.84l26.27,39.82c.09.09.23.14.42.14s.33-.05.42-.14l25.99-39.69c.47-.65,1.02-.98,1.68-.98Z"/>
        <path class="cls-1" d="M608.82,352.87h-51.42c-.37,0-.56.19-.56.56v34.51c0,.37.19.56.56.56h36.05c.93,0,1.4.47,1.4,1.4v5.87c0,.93-.47,1.4-1.4,1.4h-36.05c-.37,0-.56.19-.56.56v35.07c0,.37.19.56.56.56h51.42c.93,0,1.4.47,1.4,1.4v5.87c0,.93-.47,1.4-1.4,1.4h-60.51c-.93,0-1.4-.47-1.4-1.4v-95.02c0-.93.46-1.4,1.4-1.4h60.51c.93,0,1.4.47,1.4,1.4v5.87c0,.93-.47,1.4-1.4,1.4Z"/>
      </g>
    </g>
  </g>
</svg>